<svg xmlns="http://www.w3.org/2000/svg" width="23.734" height="28.377" viewBox="0 0 23.734 28.377"><defs><style>.a{fill:#fff;}.a,.b{stroke-linecap:round;}.b,.e{fill:#7b7b7b;}.c{fill:none;stroke:#7b7b7b;stroke-width:2px;}.d,.e{stroke:none;}</style></defs><g transform="translate(-259.947 -146)"><g class="a" transform="translate(260.001 146)"><path class="d" d="M 23.18055152893066 27.87701797485352 L 0.5078710317611694 27.87701797485352 L 0.4501000940799713 7.302633285522461 L 7.315622329711914 0.523354709148407 L 23.18055152893066 0.5007117390632629 L 23.18055152893066 27.87701797485352 Z"/><path class="e" d="M 22.68055152893066 1.001426696777344 L 7.521173477172852 1.023061752319336 L 0.9506893157958984 7.511009216308594 L 1.006471633911133 27.37701797485352 L 22.68055152893066 27.37701797485352 L 22.68055152893066 1.001426696777344 M 23.68055152893066 -3.814697265625e-06 L 23.68055152893066 28.37701797485352 L 0.009271621704101562 28.37701797485352 L -0.05048942565917969 7.094257354736328 L 7.110071182250977 0.02364730834960938 L 23.68055152893066 -3.814697265625e-06 Z"/></g><g class="b" transform="translate(246 127.309)"><path class="d" d="M 20.90402984619141 25.65042877197266 L 15.16242504119873 25.65042877197266 L 20.90402984619141 19.96562194824219 L 20.90402984619141 25.65042877197266 Z"/><path class="e" d="M 20.40402984619141 21.16428565979004 L 16.37806129455566 25.15042877197266 L 20.40402984619141 25.15042877197266 L 20.40402984619141 21.16428565979004 M 21.40402984619141 18.76694869995117 L 21.40402984619141 26.15042877197266 L 13.94677925109863 26.15042877197266 L 21.40402984619141 18.76694869995117 Z"/></g><line class="c" x2="5.939" transform="translate(264.302 157.746)"/><path class="c" d="M0,0H15.392" transform="translate(264.324 162.476)"/><path class="c" d="M0,0H15.392" transform="translate(264.324 165.509)"/><path class="c" d="M0,0H15.392" transform="translate(264.324 168.543)"/></g></svg>