<svg xmlns="http://www.w3.org/2000/svg" width="24" height="24" viewBox="0 0 24 24"><defs><style>.a{fill:#707070;}</style></defs><path class="a" d="M6139.839,1291.424l-2.72-2.72a2.886,2.886,0,0,1-.847-2.053,2.847,2.847,0,0,1,.834-2.013l5.065-5.065a2.846,2.846,0,0,1,2.02-.834,2.886,2.886,0,0,1,2.046.848h0l.621.62.022-.022,1.329-1.328-.621-.62a2.89,2.89,0,0,1-.66-3.069,2.834,2.834,0,0,1,.646-1l5.065-5.065a2.831,2.831,0,0,1,.976-.638,2.889,2.889,0,0,1,3.09.652l2.719,2.719a2.877,2.877,0,0,1,.014,4.066l-5.065,5.065a2.846,2.846,0,0,1-2.014.834h-.015a2.884,2.884,0,0,1-1.886-.707l-.025-.022-.029-.026q-.049-.045-.1-.092l-.573-.573-1.329,1.328-.022.022.573.573a2.885,2.885,0,0,1,.848,2.053,2.847,2.847,0,0,1-.834,2.013l-5.065,5.065q-.04.04-.081.078a2.833,2.833,0,0,1-.647.45,2.887,2.887,0,0,1-3.338-.541Zm-1.373-5.426a.959.959,0,0,0,0,1.355l2.719,2.719a.96.96,0,0,0,1.355,0l5.065-5.065a.952.952,0,0,0,.278-.677.961.961,0,0,0-.283-.678l-.573-.574-1.987,1.987a1.087,1.087,0,0,1-1.525-1.525l1.987-1.987-.621-.62a.96.96,0,0,0-1.355,0Zm13.874-6.111h.011a.948.948,0,0,0,.662-.278l5.065-5.065a.96.96,0,0,0,0-1.355l-2.72-2.72a.962.962,0,0,0-.67-.282h-.023a.947.947,0,0,0-.662.278l-5.065,5.065-.026.027a.949.949,0,0,0-.252.65.962.962,0,0,0,.283.679l.621.62.009-.009,2.017-2.016a1.087,1.087,0,0,1,1.525,1.525l-2.016,2.016-.009.009.574.573.017.017a.962.962,0,0,0,.642.266Z" transform="translate(-6136.272 -1268.272)"/></svg>