<svg xmlns="http://www.w3.org/2000/svg" width="24.005" height="24.007" viewBox="0 0 24.005 24.007"><defs><style>.a{fill:#707070;}.b{fill:#7b7b7b;}</style></defs><g transform="translate(-139 -328)"><path class="a" d="M21.189,20.241l-5.183-5.183a9.1,9.1,0,1,0-.9.9l5.183,5.183a.643.643,0,0,0,.449.189.623.623,0,0,0,.449-.189A.639.639,0,0,0,21.189,20.241ZM1.322,9.094a7.817,7.817,0,1,1,7.817,7.822A7.826,7.826,0,0,1,1.322,9.094Z" transform="translate(138.95 328)"/><path class="b" d="M23.485,22.5a91.555,91.555,0,0,0-6.56-6.56c-.221-.077-2,1.8-1.931,1.931s6.239,6.488,6.56,6.56S23.5,22.82,23.485,22.5Z" transform="translate(139.52 327.57)"/></g></svg>