<svg xmlns="http://www.w3.org/2000/svg" width="24" height="22" viewBox="0 0 24 22"><defs><style>.a{fill:none;}.b,.c{stroke:none;}.c{fill:#707070;}</style></defs><g class="a" transform="translate(-0.003 -1.317)"><path class="b" d="M4.851,23.317a.437.437,0,0,1-.328-.147.4.4,0,0,1-.095-.336l1.328-7.447L.131,10.113a.4.4,0,0,1-.106-.422.425.425,0,0,1,.345-.28L8.141,8.324l3.477-6.776a.432.432,0,0,1,.387-.231h0a.432.432,0,0,1,.387.231l3.476,6.775L23.637,9.41a.425.425,0,0,1,.345.28.4.4,0,0,1-.106.422l-5.625,5.275,1.328,7.446a.406.406,0,0,1-.171.4.444.444,0,0,1-.452.031L12,19.754,5.051,23.27a.447.447,0,0,1-.2.047Zm-3.5-13.21,5.163,4.842a.4.4,0,0,1,.123.366L5.422,22.148,11.8,18.921a.445.445,0,0,1,.4,0l6.381,3.227-1.218-6.835a.4.4,0,0,1,.122-.365l5.164-4.842-7.132-1a.429.429,0,0,1-.324-.226L12,2.665,8.813,8.883a.429.429,0,0,1-.324.226Z"/><path class="c" d="M 19.15515518188477 23.31699562072754 C 19.08676528930664 23.31699562072754 19.01812171936035 23.30130958557129 18.95525741577148 23.26951217651367 L 12.0035572052002 19.75410270690918 L 5.050997257232666 23.26951217651367 C 4.989306926727295 23.3004322052002 4.920777320861816 23.31659317016602 4.851217269897461 23.31663131713867 C 4.724617004394531 23.31655311584473 4.604496955871582 23.26277160644531 4.5229172706604 23.16965293884277 C 4.441347122192383 23.07652282714844 4.406617164611816 22.95353317260742 4.428017139434814 22.8335018157959 L 5.756057262420654 15.38691234588623 L 0.1306771039962769 10.11296272277832 C 0.01503709796816111 10.00296211242676 -0.02612290158867836 9.83956241607666 0.02435709722340107 9.690842628479004 C 0.07482709735631943 9.542121887207031 0.2082871049642563 9.433562278747559 0.3691371083259583 9.410382270812988 L 8.141457557678223 8.3238525390625 L 11.61859703063965 1.547612309455872 C 11.69093227386475 1.406392574310303 11.84037971496582 1.317000389099121 12.00396347045898 1.317000389099121 C 12.00440406799316 1.317000389099121 12.0048360824585 1.317000985145569 12.00527667999268 1.317002296447754 C 12.00570774078369 1.317000985145569 12.00616073608398 1.317000389099121 12.00659084320068 1.317000389099121 C 12.17018604278564 1.317000389099121 12.31961727142334 1.406383872032166 12.39195728302002 1.547612309455872 L 15.86780738830566 8.322611808776855 L 23.63712692260742 9.410382270812988 C 23.79797744750977 9.433562278747559 23.93142700195312 9.542121887207031 23.98189735412598 9.690842628479004 C 24.03237724304199 9.83956241607666 23.99122619628906 10.00296211242676 23.87557792663574 10.11296272277832 L 18.25105667114258 15.3877420425415 L 19.57866668701172 22.83391189575195 C 19.60628700256348 22.98895263671875 19.54000663757324 23.1456413269043 19.40770721435547 23.23809242248535 C 19.33286285400391 23.29038238525391 19.24422645568848 23.31699562072754 19.15515518188477 23.31699562072754 Z M 18.58489799499512 22.14786148071289 L 17.36641693115234 15.31293201446533 C 17.34258651733398 15.17953205108643 17.3881664276123 15.04337215423584 17.48843765258789 14.94841194152832 L 22.65236663818359 10.10635185241699 L 15.52022743225098 9.109092712402344 C 15.38027667999268 9.089542388916016 15.25928688049316 9.005002021789551 15.19669723510742 8.883022308349609 L 12.0035572052002 2.664722204208374 L 8.812566757202148 8.883441925048828 C 8.749966621398926 9.005422592163086 8.628987312316895 9.089962005615234 8.48903751373291 9.109512329101562 L 1.35474705696106 10.10635185241699 L 6.517386913299561 14.94841194152832 C 6.618536949157715 15.04339218139648 6.664647102355957 15.18016242980957 6.640697002410889 15.31417274475098 L 5.421787261962891 22.14786148071289 L 11.80376720428467 18.92092132568359 C 11.86637210845947 18.88924789428711 11.93507194519043 18.87340927124023 12.00377178192139 18.87340927124023 C 12.07247257232666 18.87340927124023 12.14117240905762 18.88924789428711 12.20377731323242 18.92092132568359 L 18.58489799499512 22.14786148071289 Z"/></g></svg>